<svg width="100" height="42" viewBox="0 0 100 42" fill="none" xmlns="http://www.w3.org/2000/svg">
<g clip-path="url(#clip0_612_1368)">
<path d="M40.454 19.8162C40.3258 19.4876 40.1383 19.1839 39.9904 18.8652C39.9442 18.7739 39.9294 18.6696 39.9484 18.569C40.4984 16.7391 40.0742 15.1705 38.7152 13.851C38.6684 13.8096 38.6322 13.7575 38.6094 13.699C38.5866 13.6405 38.578 13.5774 38.5844 13.5149C38.6141 11.7348 37.9037 10.3531 36.3844 9.41696C36.3664 9.40555 36.3474 9.39555 36.3277 9.38709C36.217 9.34386 36.1199 9.27134 36.0465 9.17716C35.9733 9.08297 35.9263 8.9706 35.9109 8.85182C35.4349 7.08914 34.2929 6.00117 32.5368 5.57792C32.4752 5.56596 32.4175 5.53846 32.3692 5.49798C32.3209 5.45749 32.2836 5.40535 32.2607 5.34638C32.0069 4.83228 31.6548 4.37398 31.2247 3.99794C30.7947 3.62191 30.295 3.33558 29.7547 3.15549C29.202 2.9555 28.6134 2.87658 28.0282 2.92396C27.9464 2.92253 27.8684 2.88852 27.8111 2.82936C27.1273 2.03609 26.187 1.51304 25.1574 1.35299C24.4688 1.2462 23.7649 1.30854 23.1053 1.53473C23.01 1.56378 22.9073 1.55395 22.8191 1.50735C22.2741 1.14172 21.6545 0.904334 21.0064 0.812734C20.9891 0.812734 20.9744 0.787839 20.9596 0.775391H19.7954C19.4525 0.872487 19.1023 0.94718 18.7718 1.07415C18.4807 1.18619 18.2119 1.36294 17.9284 1.50236C17.8532 1.5443 17.7668 1.56088 17.6817 1.54967C15.8442 0.982028 14.2707 1.41772 12.9388 2.7945C12.8717 2.85787 12.7839 2.89419 12.6921 2.89656C11.6062 2.83812 10.5356 3.17566 9.67571 3.84762C9.16605 4.24811 8.75146 4.75847 8.46224 5.34141C8.43682 5.39989 8.3965 5.45053 8.34536 5.48814C8.29423 5.52575 8.23414 5.54901 8.17119 5.55552C7.34579 5.73166 6.58806 6.14388 5.98845 6.74295C5.38885 7.34202 4.97273 8.10264 4.78976 8.93398C4.77946 9.01717 4.74851 9.09638 4.69978 9.16427C4.65106 9.23216 4.58615 9.28654 4.51106 9.32236C3.87773 9.64711 3.33309 10.1239 2.92498 10.7108C2.51687 11.2977 2.25777 11.9768 2.17043 12.6884C2.12604 12.9647 2.17043 13.2535 2.15071 13.5348C2.14482 13.6382 2.10288 13.7361 2.03232 13.8112C1.20739 14.5489 0.687132 15.5726 0.574673 16.6793C0.499955 17.3069 0.566558 17.9435 0.769517 18.5415C0.800771 18.6394 0.792805 18.7458 0.74732 18.8378C0.349467 19.4433 0.105505 20.1386 0.0369946 20.8619C0.0369946 20.8893 0.012332 20.9117 0 20.9391V21.686C0.0320632 21.8751 0.0616611 22.0669 0.101124 22.2536C0.213019 22.7934 0.428341 23.3059 0.734988 23.7623C0.771795 23.8106 0.794909 23.8682 0.80186 23.9286C0.808811 23.9892 0.799338 24.0505 0.774452 24.106C0.506189 24.9155 0.477389 25.7866 0.691577 26.6125C0.905764 27.4385 1.35366 28.1835 1.98053 28.7566C2.0492 28.8178 2.10148 28.8955 2.13251 28.9826C2.16355 29.0696 2.17236 29.1631 2.1581 29.2545C2.12653 29.8856 2.23478 30.516 2.47499 31.0995C2.7152 31.6832 3.08133 32.2053 3.54669 32.628C3.85984 32.9024 4.20134 33.1419 4.56532 33.3426C4.62395 33.3734 4.67442 33.4181 4.7126 33.4726C4.75077 33.5272 4.77552 33.5901 4.78483 33.6562C4.95666 34.4903 5.36536 35.2557 5.96102 35.8592C6.55668 36.4627 7.31351 36.8781 8.13913 37.0546C8.21427 37.0669 8.28518 37.0981 8.34547 37.1449C8.40574 37.192 8.4535 37.2532 8.48444 37.3234C8.79834 37.957 9.2621 38.5026 9.83469 38.9121C10.4073 39.3216 11.071 39.5824 11.7672 39.6712C12.0632 39.716 12.369 39.6911 12.6699 39.716C12.7718 39.7223 12.8684 39.7636 12.9437 39.8331C13.6651 40.6751 14.6799 41.2046 15.7776 41.3119C16.4064 41.3885 17.0442 41.3186 17.6422 41.1077C17.7229 41.0793 17.8114 41.0837 17.8889 41.1202C18.5022 41.5419 19.2118 41.7989 19.9507 41.8671C19.9706 41.8735 19.9889 41.8837 20.005 41.8969H20.7449C21.0472 41.8502 21.3456 41.7811 21.6377 41.6904C22.0373 41.5385 22.4147 41.3243 22.8043 41.1476C22.889 41.1048 22.9853 41.0917 23.0782 41.1103C23.8011 41.3594 24.5758 41.4138 25.3259 41.2679C26.0761 41.1221 26.7754 40.781 27.355 40.2787C27.4928 40.1744 27.6163 40.0522 27.7224 39.9152C27.7763 39.84 27.8498 39.7817 27.9347 39.7464C28.0198 39.7113 28.1128 39.7008 28.2034 39.716C29.2532 39.7726 30.2862 39.4308 31.0989 38.7575C31.5951 38.37 31.9953 37.8714 32.268 37.3011C32.2946 37.2403 32.3357 37.1873 32.3879 37.1467C32.44 37.1063 32.5015 37.0797 32.5665 37.0696C34.357 36.6363 35.4768 35.5086 35.9404 33.7184C35.9577 33.6295 35.9955 33.546 36.0507 33.4746C36.1061 33.4032 36.1773 33.346 36.2586 33.3076C36.8734 32.9862 37.4027 32.5204 37.8019 31.9494C38.2011 31.3782 38.4585 30.7187 38.5524 30.0263C38.5779 29.7008 38.5868 29.3742 38.5795 29.0478C38.5845 28.9744 38.6161 28.9053 38.6682 28.8536C39.4505 28.1599 39.9685 27.2126 40.1334 26.1748C40.2421 25.4723 40.1795 24.7535 39.9509 24.081C39.924 23.9992 39.9293 23.9101 39.9657 23.8321C40.3379 23.2714 40.5799 22.6331 40.6735 21.9648C40.6735 21.9449 40.6957 21.9275 40.7056 21.9101V20.735C40.6388 20.4242 40.5548 20.1175 40.454 19.8162ZM39.5019 18.1631C39.0977 17.8611 38.6752 17.5851 38.2366 17.3365C37.7681 17.1405 37.2879 16.9741 36.7988 16.8386C37.6076 16.2297 38.1876 15.3615 38.4438 14.3764C39.3194 14.7796 39.973 17.1822 39.5019 18.1631ZM30.502 27.2379C30.2092 27.2426 29.9212 27.3137 29.6594 27.4461C29.3976 27.5786 29.1685 27.7687 28.9894 28.0025C28.8103 28.2364 28.6858 28.508 28.6248 28.7971C28.5639 29.0862 28.5681 29.3856 28.6374 29.6727C28.3533 29.6039 28.0575 29.5998 27.7715 29.6604C27.4856 29.7211 27.2166 29.8452 26.9839 30.0236C26.7512 30.202 26.5606 30.4303 26.4261 30.6921C26.2915 30.954 26.2161 31.2428 26.2056 31.5375C24.8096 31.062 23.9562 31.4205 23.384 32.7275C23.1706 32.5295 22.9172 32.3805 22.6414 32.2907C22.3655 32.2008 22.0735 32.1724 21.7858 32.2072C21.4981 32.2453 21.2224 32.3469 20.9782 32.5048C20.7338 32.6628 20.527 32.8731 20.3725 33.1209C19.4871 32.033 18.4807 31.8762 17.3216 32.7177C17.2346 32.4404 17.0889 32.1854 16.8947 31.9705C16.7005 31.7556 16.4624 31.5857 16.1969 31.4728C15.9254 31.3553 15.6305 31.3032 15.3355 31.3205C15.0407 31.3378 14.7537 31.424 14.4976 31.5724C14.4939 31.2733 14.4228 30.979 14.2894 30.7119C14.156 30.4449 13.964 30.2121 13.728 30.0313C13.4961 29.8545 13.2285 29.7315 12.9441 29.6714C12.6597 29.6111 12.3656 29.6149 12.0829 29.6827C12.3296 28.3781 11.4984 27.3026 10.2134 27.2353C10.3563 26.9785 10.4396 26.6923 10.4571 26.3981C10.4746 26.1041 10.4259 25.8098 10.3145 25.5374C10.2045 25.2674 10.037 25.025 9.82392 24.8275C9.61081 24.63 9.35729 24.4822 9.0813 24.3947C9.88042 22.9632 9.80149 22.3656 8.67189 21.3125C8.91695 21.1576 9.12526 20.9502 9.28212 20.705C9.43896 20.4597 9.5405 20.1826 9.57952 19.8934C9.61563 19.6025 9.58867 19.3071 9.50051 19.0276C9.41237 18.7483 9.26513 18.4914 9.06898 18.2751C10.386 17.6254 10.719 16.8212 10.2528 15.4395C11.8042 15.2104 12.2778 14.0552 12.1002 12.9722C12.3833 13.041 12.6781 13.0448 12.9629 12.9832C13.2476 12.9216 13.515 12.7961 13.7453 12.6162C13.9796 12.4381 14.17 12.2076 14.3015 11.9429C14.4328 11.6781 14.5016 11.3862 14.5024 11.09C14.759 11.2283 15.0422 11.309 15.3324 11.3266C15.6228 11.3442 15.9134 11.2983 16.1845 11.1921C16.4605 11.0797 16.7076 10.9057 16.9075 10.6832C17.1073 10.4608 17.2548 10.1956 17.3388 9.90743C17.5513 10.1122 17.8064 10.2666 18.0853 10.3592C18.3645 10.4518 18.6605 10.4803 18.9518 10.4427C19.2449 10.4055 19.5256 10.3005 19.772 10.136C20.0185 9.97151 20.2239 9.75186 20.3725 9.49415C20.5214 9.75019 20.7262 9.96857 20.9712 10.1327C21.2163 10.2968 21.4953 10.4023 21.7868 10.4412C22.0784 10.4801 22.3749 10.4513 22.6539 10.3571C22.9327 10.2629 23.1867 10.1057 23.3963 9.89747C23.4784 10.1808 23.622 10.4422 23.8166 10.6626C24.011 10.8831 24.2517 11.0571 24.521 11.1722C24.7905 11.2869 25.082 11.3389 25.3741 11.3242C25.6662 11.3096 25.9512 11.2287 26.208 11.0875C26.2221 11.3838 26.2989 11.6735 26.4334 11.9372C26.5678 12.2009 26.7567 12.4324 26.9874 12.6162C27.214 12.7958 27.4779 12.9216 27.7593 12.9841C28.0407 13.0466 28.3324 13.0442 28.6128 12.9772C28.4944 14.3788 29.1061 15.2178 30.4824 15.4419C30.0384 16.8635 30.4083 17.7474 31.681 18.2777C31.4779 18.489 31.3246 18.7439 31.2324 19.0234C31.1403 19.3028 31.1118 19.5996 31.149 19.8917C31.1863 20.1838 31.2882 20.4637 31.4474 20.7106C31.6065 20.9574 31.8187 21.1648 32.0682 21.3175C30.9361 22.4155 30.8498 23.0603 31.6563 24.3997C31.3799 24.485 31.1259 24.6314 30.9126 24.8282C30.6993 25.025 30.532 25.2673 30.4231 25.5374C30.311 25.8092 30.2598 26.1026 30.2735 26.3966C30.2872 26.6906 30.3653 26.9779 30.502 27.2379ZM5.92185 17.6901C6.60009 17.8843 7.28577 18.061 7.96896 18.2427C8.26106 18.3098 8.52383 18.4704 8.71809 18.7006C8.91233 18.9308 9.02764 19.2183 9.04678 19.52C9.05912 20.2867 8.7064 20.8021 8.01582 20.9939C7.8408 21.0313 7.66182 21.0464 7.48308 21.0387C7.03666 21.0387 6.5927 21.0387 6.14628 21.0387V21.0238C5.62094 21.0238 5.09313 21.066 4.57518 21.0238C3.92411 20.9787 3.29643 20.7605 2.75583 20.3915C2.21525 20.0225 1.78098 19.5156 1.49711 18.9225C1.48722 18.8818 1.48653 18.8394 1.49506 18.7986C1.50361 18.7576 1.52117 18.7191 1.54643 18.6859C2.09111 18.0839 2.80856 17.6687 3.59848 17.4984C4.3976 17.3091 5.15726 17.471 5.92185 17.6901ZM2.71551 13.9556C3.37486 13.4958 4.15729 13.2494 4.95871 13.2494C5.76014 13.2494 6.54255 13.4958 7.2019 13.9556C7.83084 14.339 8.47457 14.7024 9.11583 15.0684C9.90509 15.5191 10.1665 16.3506 9.74723 17.0926C9.59682 17.3589 9.36335 17.5677 9.08317 17.6861C8.80301 17.8045 8.4919 17.826 8.19833 17.7474C7.25863 17.4984 6.31153 17.2768 5.38663 16.983C3.91172 16.5075 3.06327 15.4618 2.70317 13.9506L2.71551 13.9556ZM6.22767 21.554V21.5789H7.69271C8.02805 21.5833 8.35075 21.7087 8.60237 21.9326C8.85399 22.1563 9.0179 22.4637 9.06441 22.799C9.11092 23.1341 9.03695 23.4752 8.85592 23.7601C8.67487 24.0451 8.39872 24.2553 8.07748 24.3524C7.11311 24.6188 6.15615 24.9225 5.17699 25.1217C4.51928 25.2742 3.83285 25.2434 3.19117 25.0324C2.5495 24.8215 1.9767 24.4384 1.53411 23.9242C1.51335 23.8838 1.50251 23.839 1.50251 23.7935C1.50251 23.7479 1.51335 23.7031 1.53411 23.6627C2.10878 22.6096 2.96216 21.8925 4.1411 21.671C4.8297 21.5911 5.52221 21.5504 6.21535 21.549L6.22767 21.554ZM5.66041 25.5624C6.50638 25.3458 7.34495 25.1018 8.18847 24.8877C8.39161 24.8331 8.60444 24.8264 8.81056 24.8681C9.01667 24.9096 9.21058 24.9985 9.37735 25.1276C9.54412 25.2568 9.67932 25.4228 9.77252 25.6129C9.86573 25.8032 9.91445 26.0124 9.91495 26.2246C9.92992 26.4799 9.87213 26.7343 9.74844 26.9575C9.62475 27.1808 9.44033 27.3636 9.21696 27.4844C8.41292 27.9574 7.60886 28.4329 6.79742 28.896C6.24326 29.22 5.61265 29.3869 4.97227 29.379C4.22859 29.3908 3.4973 29.1859 2.86596 28.7889C2.81375 28.7608 2.7733 28.7146 2.75202 28.6588C2.73073 28.603 2.73003 28.5415 2.75004 28.4852C2.91658 27.7724 3.27744 27.1209 3.79176 26.6043C4.30611 26.0878 4.95339 25.7269 5.66041 25.5624ZM30.7906 16.2785C30.7974 16.0489 30.8628 15.8249 30.9803 15.6284C31.0978 15.4317 31.2635 15.2688 31.4615 15.1556C32.3148 14.6576 33.1682 14.1473 34.0315 13.6618C34.5657 13.383 35.1566 13.233 35.7579 13.2236C36.4988 13.2348 37.2225 13.449 37.852 13.8436C37.8978 13.8634 37.9343 13.9004 37.9536 13.9469C37.973 13.9934 37.9737 14.0456 37.9555 14.0925C37.802 14.8131 37.4474 15.474 36.9332 15.9974C36.4193 16.5206 35.7674 16.8842 35.0551 17.0453C34.2336 17.2668 33.4075 17.471 32.5886 17.715C32.3739 17.7776 32.1476 17.7878 31.9284 17.7446C31.709 17.7014 31.503 17.6063 31.3274 17.4669C31.1517 17.3275 31.0114 17.1479 30.918 16.943C30.8247 16.7381 30.781 16.5137 30.7906 16.2884V16.2785ZM30.7906 26.0678C30.8317 25.7714 30.964 25.4955 31.1691 25.2793C31.3739 25.063 31.6411 24.9173 31.9326 24.8628C32.2891 24.8256 32.6494 24.8751 32.9833 25.0072C33.7552 25.2138 34.537 25.3956 35.2967 25.6371C36.7396 26.0952 37.6152 27.0985 37.9703 28.5723C37.9826 28.6296 37.9037 28.7367 37.8421 28.779C37.2499 29.173 36.5559 29.3817 35.8468 29.379C35.1232 29.3941 34.4102 29.2024 33.7898 28.8263C33.0498 28.3832 32.2877 27.9524 31.533 27.5167C31.2811 27.3794 31.0761 27.1686 30.9446 26.912C30.813 26.6552 30.7611 26.3647 30.7955 26.0778L30.7906 26.0678ZM34.584 24.8826C33.955 24.7035 33.3187 24.5391 32.6872 24.3648C32.3578 24.2766 32.0714 24.0705 31.8815 23.7848C31.6916 23.499 31.6113 23.1535 31.6554 22.8123C31.6995 22.4711 31.865 22.1578 32.1212 21.9308C32.3773 21.7039 32.7065 21.5788 33.0474 21.5789H34.5149C34.9662 21.5789 35.4201 21.5615 35.8714 21.5789C36.5704 21.5878 37.2535 21.7912 37.8453 22.1668C38.4372 22.5424 38.9148 23.0755 39.2258 23.7075C39.2361 23.7442 39.2379 23.7829 39.2311 23.8205C39.2242 23.858 39.2088 23.8935 39.1863 23.9242C38.6151 24.5733 37.8417 25.0063 36.9936 25.1516C36.1624 25.3134 35.3731 25.1192 34.5889 24.8926L34.584 24.8826ZM34.6579 21.0809V21.0312C34.0685 21.0312 33.479 21.0611 32.892 21.0312C32.5684 21.002 32.2659 20.8564 32.0396 20.6212C31.8133 20.3859 31.6782 20.0763 31.6588 19.749C31.6347 19.429 31.7194 19.1101 31.8986 18.8449C32.0779 18.5798 32.3412 18.3841 32.6453 18.29C33.6467 18.0088 34.6456 17.6901 35.6668 17.4909C37.043 17.227 38.2269 17.6802 39.1863 18.7034C39.2126 18.7385 39.2292 18.7801 39.2343 18.8238C39.2396 18.8675 39.2332 18.9119 39.2159 18.9524C38.9575 19.4853 38.5764 19.9479 38.1043 20.3014C37.6322 20.6549 37.083 20.8889 36.5028 20.9839C35.8902 21.0526 35.2742 21.0849 34.6579 21.0809ZM36.0539 9.87755C37.2008 10.4004 38.1183 11.9016 38.0468 13.3432C37.1373 12.8079 36.0723 12.6073 35.0328 12.7755C35.6948 11.9577 36.0556 10.9336 36.0539 9.87755ZM32.5738 6.11818C33.2583 6.29475 33.8833 6.65358 34.3836 7.15721C34.8837 7.66084 35.2408 8.29078 35.4176 8.98128C34.3913 8.70424 33.3018 8.79216 32.3322 9.23024C32.767 8.25239 32.8525 7.15251 32.5738 6.11818ZM34.3744 9.35472C34.5692 9.39457 34.9293 9.47423 35.2943 9.53149C35.494 9.56385 35.541 9.6734 35.541 9.84768C35.5491 10.5563 35.3678 11.254 35.0163 11.8674C34.6647 12.4808 34.1558 12.9872 33.5431 13.3332C32.7859 13.7614 32.0411 14.212 31.2913 14.6477C31.0901 14.78 30.8585 14.8579 30.6189 14.8738C30.3792 14.8897 30.1396 14.8432 29.9229 14.7388C29.7062 14.6342 29.5198 14.4753 29.3815 14.2771C29.2431 14.0789 29.1577 13.8482 29.1332 13.6071C29.1016 13.4081 29.1176 13.2045 29.1799 13.0131C29.2421 12.8217 29.3487 12.648 29.4908 12.5066C30.2308 11.7473 30.9707 10.9854 31.7402 10.2659C32.4136 9.62859 33.2718 9.37962 34.3866 9.34229L34.3744 9.35472ZM32.0387 6.21029C32.1102 6.59868 32.1841 6.98458 32.2581 7.37296C32.2261 8.39794 31.8172 9.37421 31.1113 10.1116C30.4725 10.7763 29.8164 11.4261 29.1628 12.0784C28.9377 12.3115 28.6402 12.4593 28.3198 12.497C27.9996 12.5346 27.6763 12.4598 27.4042 12.2851C27.1334 12.1147 26.9289 11.8553 26.8256 11.5504C26.7223 11.2456 26.7262 10.9142 26.8369 10.612C26.9855 10.2824 27.157 9.96373 27.3499 9.65847C27.6632 9.10575 27.9764 8.55307 28.297 8.00534C28.5858 7.48921 28.9877 7.0467 29.472 6.71179C29.9564 6.37689 30.5104 6.15849 31.0914 6.07337C31.3255 6.04424 31.5612 6.0301 31.7969 6.03104C31.8236 6.02564 31.8512 6.02571 31.8779 6.03122C31.9046 6.03672 31.93 6.04756 31.9525 6.06309C31.975 6.07863 31.9943 6.09856 32.0091 6.1217C32.0239 6.14485 32.0339 6.17073 32.0387 6.19784V6.21029ZM31.7106 5.48581C30.6586 5.48654 29.6392 5.85418 28.8248 6.52649C28.9999 5.48215 28.8061 4.40893 28.2773 3.49409C29.4539 3.36213 31.0693 4.15136 31.7106 5.47336V5.48581ZM27.5448 3.55136C27.5798 3.54837 27.6149 3.55406 27.6471 3.56796C27.6794 3.58184 27.7077 3.6035 27.7299 3.63102C28.0703 4.14438 28.2772 4.73601 28.3316 5.35137C28.3316 5.49578 28.3636 5.63767 28.3809 5.78208C28.3402 6.61025 28.0786 7.41193 27.6237 8.10243C27.2316 8.74227 26.8839 9.40452 26.5015 10.0568C26.3657 10.3148 26.1548 10.5247 25.8973 10.6582C25.6399 10.7917 25.348 10.8425 25.0612 10.8037C24.7563 10.7649 24.4737 10.6224 24.2598 10.3998C24.046 10.1771 23.9137 9.88754 23.8847 9.57879C23.8662 9.32706 23.8929 9.07402 23.9636 8.8319C24.1929 7.92318 24.405 7.0045 24.7035 6.1157C25.1524 4.71153 26.1464 3.88248 27.5448 3.53891V3.55136ZM27.2588 3.05342C26.2467 3.32241 25.359 3.93857 24.7479 4.79617C24.6426 3.74693 24.1776 2.76774 23.4334 2.02768C24.4076 1.61689 26.2697 1.8783 27.2588 3.05342ZM22.9475 2.30652C23.6396 2.92723 24.0791 3.78508 24.1806 4.71401C24.2004 4.88083 24.2176 5.04514 24.2349 5.21195L24.2818 5.22938C24.1486 5.81694 24.0228 6.40947 23.8773 6.99455C23.7317 7.57961 23.5541 8.21945 23.384 8.8319C23.3109 9.14128 23.1374 9.41714 22.8912 9.61562C22.6449 9.8141 22.34 9.92381 22.025 9.92735C21.714 9.93106 21.4109 9.8293 21.1639 9.63835C20.9171 9.44739 20.7408 9.17831 20.6635 8.87423C20.6311 8.74072 20.617 8.60332 20.6216 8.46592C20.6216 7.4576 20.5995 6.4493 20.6389 5.44348C20.6611 4.92804 20.7921 4.42331 21.0231 3.96307C21.254 3.50281 21.5796 3.09762 21.9782 2.77458C22.2084 2.585 22.4562 2.41825 22.718 2.27666C22.7552 2.26007 22.7961 2.25386 22.8365 2.25869C22.8768 2.2635 22.9152 2.27915 22.9475 2.30403V2.30652ZM22.3482 1.86586C21.4341 2.39806 20.7315 3.23403 20.3602 4.23103C19.9921 3.23401 19.2885 2.39942 18.3723 1.87333C18.9693 1.50105 19.657 1.30305 20.3588 1.3013C21.0607 1.29954 21.7491 1.49409 22.3482 1.86337V1.86586ZM17.7754 2.3115C17.8071 2.29039 17.8431 2.27694 17.8807 2.2722C17.9183 2.26745 17.9566 2.27153 17.9924 2.28411C19.1517 2.91649 19.8792 3.87999 20.037 5.20946C20.0757 5.82284 20.0799 6.43794 20.0494 7.0518H20.0814C20.0814 7.54973 20.0814 8.02526 20.0814 8.51074C20.0715 8.84647 19.9438 9.1677 19.7209 9.41714C19.4981 9.66658 19.1947 9.82797 18.865 9.87255C18.5351 9.91711 18.2004 9.84194 17.9204 9.66046C17.6404 9.47896 17.4334 9.20297 17.3364 8.8817C17.0897 7.92069 16.7839 6.96715 16.5965 5.9937C16.4406 5.32941 16.468 4.6347 16.6758 3.98507C16.8837 3.33544 17.264 2.75575 17.7754 2.30902V2.3115ZM17.2821 2.01275C16.5407 2.76166 16.0773 3.74545 15.97 4.79867C15.364 3.94239 14.4814 3.32612 13.474 3.05591C13.9426 2.15964 16.0539 1.56959 17.2871 2.01026L17.2821 2.01275ZM12.9486 3.66836C12.9599 3.64091 12.9765 3.61601 12.9975 3.59518C13.0185 3.57433 13.0434 3.55796 13.0708 3.54705C13.0982 3.53613 13.1275 3.53089 13.1569 3.53163C13.1863 3.53237 13.2153 3.53907 13.2421 3.55136C14.7959 3.96215 15.7456 4.96795 16.1525 6.5215C16.3678 7.33479 16.5841 8.1489 16.8012 8.96384C16.8666 9.18127 16.8792 9.41137 16.8383 9.6348C16.7973 9.85821 16.7037 10.0684 16.5654 10.2478C16.4271 10.4271 16.2483 10.5703 16.0438 10.6653C15.8393 10.7603 15.6152 10.8043 15.3904 10.7937C15.1794 10.7971 14.9711 10.7457 14.7855 10.6446C14.5997 10.5435 14.4429 10.396 14.3299 10.2161C13.7674 9.28502 13.2249 8.33647 12.7094 7.37546C12.456 6.88738 12.336 6.33997 12.3616 5.78955C12.3466 5.03815 12.5526 4.29914 12.9536 3.66587L12.9486 3.66836ZM12.4553 3.46421C11.92 4.38033 11.7185 5.45641 11.8856 6.50657C11.0777 5.83632 10.0629 5.47256 9.01718 5.47834C9.29342 4.44513 11.2517 3.29243 12.4578 3.46172L12.4553 3.46421ZM8.62502 6.37461C8.68175 6.00116 8.71134 6.00615 9.23916 6.00615C9.89543 6.03236 10.5338 6.22955 11.0922 6.57857C11.6506 6.92759 12.11 7.41654 12.4258 7.99787C12.8746 8.77962 13.3219 9.5622 13.7674 10.3456C13.8912 10.5552 13.959 10.7935 13.9644 11.0374C13.9699 11.2813 13.9128 11.5225 13.7986 11.7375C13.6844 11.9525 13.517 12.134 13.3128 12.2645C13.1085 12.3949 12.8743 12.4697 12.6329 12.4817C12.4495 12.4985 12.2646 12.4747 12.0912 12.412C11.9178 12.3492 11.7601 12.2489 11.6291 12.1182C10.9163 11.4062 10.1912 10.7016 9.5006 9.96718C8.91222 9.35919 8.56704 8.55326 8.5313 7.70409C8.52132 7.25803 8.55353 6.81202 8.62749 6.37213L8.62502 6.37461ZM8.13174 6.14556C7.84967 7.16919 7.9371 8.26067 8.37837 9.22527C7.42265 8.7974 6.35136 8.70962 5.33977 8.9763C5.52969 7.76383 6.73328 6.40947 8.13668 6.14308L8.13174 6.14556ZM5.20658 9.69083C5.21501 9.65647 5.23184 9.62478 5.25555 9.59868C5.27924 9.57258 5.30905 9.55291 5.34224 9.54145C5.72946 9.45432 6.12161 9.3821 6.32879 9.33979C7.5768 9.37962 8.49677 9.73814 9.24902 10.5149C9.88781 11.1697 10.5414 11.8145 11.1852 12.4668C11.4152 12.6993 11.5566 13.0063 11.5846 13.3337C11.6126 13.6611 11.5253 13.988 11.3381 14.2568C10.978 14.7946 10.2035 15.0635 9.64118 14.7548C8.5773 14.2006 7.54996 13.5778 6.56558 12.89C5.55436 12.1182 5.14493 10.9805 5.21152 9.68834L5.20658 9.69083ZM4.65164 9.84768C4.65028 10.913 5.0146 11.9458 5.68259 12.7705C4.64986 12.5999 3.59049 12.7971 2.68592 13.3282C2.5478 12.2253 3.26058 10.5921 4.65658 9.84519L4.65164 9.84768ZM2.25676 14.3589C2.52342 15.3804 3.1338 16.2764 3.98324 16.8934C2.93623 17.0092 1.95985 17.4827 1.21594 18.2353C1.01909 17.555 1.01211 16.8332 1.19576 16.1492C1.37942 15.4652 1.74657 14.8457 2.25676 14.3589ZM1.09015 19.3183C1.593 20.2166 2.3875 20.9121 3.33951 21.2876C2.9 21.5396 2.47809 21.8215 2.07672 22.1316C1.71259 22.4825 1.37305 22.8585 1.06055 23.257C0.389693 22.3831 0.286103 20.4959 1.09015 19.3183ZM1.21841 24.4022C1.95882 25.1665 2.9437 25.641 3.99805 25.7417C3.14123 26.3559 2.52574 27.2548 2.25923 28.2811C1.37872 27.554 0.764583 25.9284 1.22334 24.4022H1.21841ZM4.67137 32.75C3.69714 32.4064 2.57986 30.8677 2.66372 29.3715C3.14592 29.5625 3.64031 29.7206 4.14357 29.8445C4.64176 29.9069 5.14365 29.9343 5.6456 29.9267C5.00498 30.7242 4.66194 31.7233 4.67631 32.75H4.67137ZM8.12434 36.4844C7.05639 36.4844 5.30771 34.7093 5.33483 33.6662C6.34096 33.9476 7.41341 33.8593 8.36111 33.4171C7.93252 34.3772 7.85389 35.4592 8.13913 36.4721L8.12434 36.4844ZM6.6889 33.2803V33.3375L5.38663 33.1135C5.24358 33.091 5.21397 33.0089 5.21397 32.8645C5.17779 32.1441 5.34376 31.4281 5.69281 30.7987C6.04186 30.1694 6.55982 29.6522 7.18711 29.3068C7.94429 28.8536 8.70642 28.4055 9.47593 27.9699C9.66654 27.8515 9.88267 27.7814 10.1059 27.7655C10.3291 27.7496 10.5529 27.7886 10.758 27.8787C10.9632 27.9689 11.1437 28.1079 11.2842 28.2837C11.4247 28.4595 11.521 28.667 11.565 28.8886C11.6255 29.1057 11.6282 29.3351 11.5728 29.5538C11.5173 29.7723 11.4058 29.9722 11.2493 30.1333C10.534 30.8802 9.8163 31.6122 9.06898 32.3218C8.42001 32.9268 7.57227 33.2683 6.6889 33.2803ZM8.61269 36.1808C8.45297 35.5202 8.469 34.8287 8.65913 34.1764C8.84927 33.5242 9.20677 32.9341 9.69544 32.4661C10.2997 31.8488 10.9114 31.2388 11.5181 30.6213C11.6955 30.4239 11.9251 30.2819 12.1799 30.2117C12.4346 30.1415 12.7039 30.1463 12.956 30.2254C13.161 30.2864 13.3496 30.3939 13.5073 30.5394C13.665 30.685 13.7878 30.865 13.8662 31.0657C13.9446 31.2663 13.9768 31.4824 13.9601 31.6974C13.9434 31.9125 13.8784 32.121 13.7699 32.3069C13.3063 33.1209 12.8549 33.945 12.3666 34.7467C12.0344 35.3131 11.5634 35.7835 10.9987 36.1128C10.4341 36.442 9.79498 36.6189 9.14297 36.6264C8.70887 36.6139 8.70395 36.6139 8.61269 36.1757V36.1808ZM9.00978 37.1541C10.0607 37.1714 11.0829 36.8075 11.8905 36.1284C11.7166 37.1793 11.9158 38.2585 12.4529 39.1758C11.0322 39.2554 9.53019 38.3094 9.00978 37.1492V37.1541ZM12.9289 38.9492C12.4808 38.2159 12.284 37.3543 12.369 36.4969C12.4142 35.9617 12.5777 35.4436 12.8475 34.9807C13.3063 34.1808 13.7642 33.3799 14.2213 32.5783C14.3418 32.3498 14.5239 32.1603 14.7464 32.0318C14.9689 31.903 15.2229 31.8405 15.4791 31.8512C15.6915 31.8519 15.9008 31.9021 16.0909 31.9976C16.281 32.0933 16.4465 32.2319 16.575 32.4027C16.7034 32.5735 16.7909 32.7718 16.8311 32.9822C16.8711 33.1927 16.8626 33.4097 16.8061 33.6163C16.5471 34.6272 16.3128 35.6504 15.9798 36.6363C15.5334 37.9409 14.5739 38.7302 13.2668 39.0837C13.2361 39.0988 13.2026 39.1071 13.1685 39.1085C13.1344 39.1097 13.1004 39.104 13.0686 39.0914C13.0368 39.0786 13.008 39.0596 12.984 39.035C12.9599 39.0106 12.9412 38.9814 12.9289 38.9492ZM13.4518 39.5866C14.4682 39.3157 15.359 38.695 15.97 37.8314C16.0678 38.8903 16.5355 39.8795 17.2896 40.6222C16.0687 41.0804 14.3003 40.6023 13.4567 39.5866H13.4518ZM17.7236 40.3061C17.322 39.9316 17.0043 39.475 16.7916 38.9666C16.579 38.4582 16.4763 37.9099 16.4904 37.3584C16.4904 36.6587 16.737 36.014 16.8999 35.3516C17.0256 34.8338 17.1786 34.3235 17.3141 33.8056C17.3953 33.4669 17.5973 33.1703 17.8814 32.9725C18.1655 32.7745 18.5119 32.6894 18.8544 32.7331C19.1969 32.7769 19.5114 32.9466 19.7377 33.2096C19.9642 33.4726 20.0864 33.8107 20.0814 34.1591C20.0814 34.6571 20.0814 35.1301 20.0814 35.6181C20.0814 36.0961 20.1061 36.5765 20.0814 37.0546C20.06 37.7422 19.8562 38.4114 19.4914 38.9925C19.1266 39.5736 18.6141 40.0452 18.0072 40.3583C17.9631 40.3876 17.9094 40.3985 17.8574 40.3887C17.8056 40.379 17.7593 40.3494 17.7285 40.3061H17.7236ZM18.3673 40.7667C19.2688 40.2463 19.9655 39.4288 20.3404 38.4512C21.1765 39.9027 21.1765 39.9027 22.3136 40.7767C21.7194 41.1415 21.037 41.3336 20.3415 41.3318C19.6461 41.3302 18.9646 41.1346 18.3723 40.7667H18.3673ZM23.2558 40.0197C22.7822 40.5177 22.9327 40.5401 22.2889 40.1045C21.8392 39.8084 21.46 39.4157 21.1786 38.9542C20.897 38.4928 20.7204 37.9741 20.6611 37.4355C20.6187 36.8139 20.6147 36.1904 20.6487 35.5682C20.6487 35.0255 20.6216 34.4803 20.6487 33.9401C20.6896 33.6152 20.8434 33.3157 21.0829 33.095C21.3224 32.8742 21.6319 32.7466 21.9559 32.7351C22.2906 32.7262 22.618 32.8339 22.883 33.0402C23.1482 33.2466 23.3346 33.5389 23.4111 33.8678C23.6404 34.8362 23.9488 35.7849 24.151 36.7583C24.2714 37.3294 24.2558 37.9212 24.1057 38.4851C23.9558 39.049 23.6754 39.5689 23.2878 40.0023L23.2558 40.0197ZM23.4802 40.6621C23.7788 40.2491 24.0516 39.8174 24.2966 39.37C24.4848 38.916 24.6437 38.4503 24.7726 37.9757C25.1213 38.3249 25.492 38.651 25.8825 38.9517C26.3151 39.2139 26.764 39.4476 27.2266 39.6513C26.7472 40.1385 26.148 40.4881 25.4905 40.6644C24.833 40.8408 24.1408 40.8374 23.4851 40.6547L23.4802 40.6621ZM27.7594 38.984C27.7347 39.0365 27.6909 39.0774 27.6373 39.0982C27.5836 39.1191 27.524 39.1184 27.4708 39.0962C26.7978 38.9451 26.178 38.6128 25.6772 38.1345C25.1765 37.6562 24.8136 37.0498 24.627 36.3799C24.3558 35.4836 24.1338 34.5699 23.9043 33.6637C23.8503 33.4829 23.8332 33.2929 23.854 33.1053C23.8748 32.9176 23.933 32.7362 24.0252 32.5718C24.1175 32.4076 24.2418 32.2638 24.3905 32.1494C24.5393 32.0349 24.7096 31.9521 24.8909 31.9059C24.9883 31.8836 25.0872 31.8695 25.187 31.8637C25.443 31.846 25.6988 31.9024 25.9243 32.0263C26.1497 32.1502 26.3354 32.3365 26.4596 32.5633C26.9776 33.462 27.5324 34.3458 27.9839 35.2795C28.598 36.5169 28.4673 37.779 27.7643 38.9766L27.7594 38.984ZM28.3341 39.1783C28.5151 38.6999 28.6674 38.2111 28.7904 37.7143C28.8581 37.21 28.8935 36.7021 28.8965 36.1931C29.692 36.8386 30.6878 37.1798 31.7081 37.1566C31.126 38.3941 29.6018 39.2554 28.3389 39.1707L28.3341 39.1783ZM32.0707 36.3425C32.0213 36.5616 31.9251 36.6737 31.6933 36.6239C31.6507 36.6189 31.6077 36.6189 31.5651 36.6239C30.1913 36.5542 29.0986 35.9765 28.3588 34.7815C27.8654 33.9699 27.3993 33.1334 26.9331 32.2919C26.8191 32.1 26.7521 31.8834 26.7379 31.6601C26.7235 31.437 26.7621 31.2134 26.8507 31.0084C26.9393 30.8033 27.0752 30.6225 27.2469 30.4812C27.4187 30.3397 27.6214 30.2419 27.8383 30.1955C28.0586 30.1362 28.2906 30.1367 28.5106 30.197C28.7307 30.2574 28.9311 30.3754 29.0913 30.5392C29.8016 31.2462 30.5168 31.9483 31.205 32.6778C31.7406 33.254 32.0779 33.9891 32.1669 34.774C32.2299 35.2957 32.1989 35.8245 32.0756 36.3351L32.0707 36.3425ZM32.5961 36.4819C32.7662 34.809 32.7662 34.809 32.3494 33.4321C33.2997 33.8636 34.3702 33.9438 35.3731 33.6587C35.1414 35.0231 33.8292 36.2678 32.6009 36.4745L32.5961 36.4819ZM35.2351 33.1483C33.7799 33.5018 32.522 33.1907 31.4392 32.1251C30.8005 31.4902 30.1691 30.8454 29.5327 30.2055C29.298 29.9658 29.1559 29.649 29.1323 29.3127C29.1087 28.9763 29.2053 28.6425 29.4043 28.3718C29.6034 28.1011 29.892 27.9112 30.2176 27.8365C30.5434 27.7618 30.8849 27.8075 31.1803 27.9648C32.1151 28.5027 33.0621 29.018 33.955 29.6181C34.8479 30.218 35.3016 31.1119 35.4792 32.1675C35.5113 32.3591 35.5138 32.5558 35.5286 32.75C35.5434 32.9441 35.4891 33.0786 35.24 33.1408L35.2351 33.1483ZM36.0514 32.7873C36.0521 31.7272 35.6886 30.6994 35.0229 29.8794C36.0642 30.043 37.1293 29.8371 38.0369 29.2969C38.0617 30.0065 37.8893 30.7089 37.5393 31.3249C37.1894 31.9407 36.6757 32.4456 36.0564 32.7824L36.0514 32.7873ZM38.4612 28.306C37.9531 26.9491 37.7212 26.6255 36.7346 25.7665C37.7739 25.6571 38.7438 25.1883 39.4798 24.4395C39.6775 25.1128 39.6874 25.828 39.5085 26.5067C39.3297 27.1852 38.9691 27.8009 38.4661 28.286L38.4612 28.306ZM39.6277 23.3565C39.1076 22.4277 38.2796 21.7137 37.2896 21.3399C38.2764 20.9618 39.1027 20.25 39.6277 19.3257C39.989 19.9309 40.1803 20.6239 40.1811 21.3305C40.182 22.037 39.9924 22.7305 39.6327 23.3366L39.6277 23.3565Z" fill="url(#paint0_linear_612_1368)"/>
<path d="M14.7811 17.0533L14.6306 17.1289V17.2988V28.1088V28.3829H14.902H25.7986H26.07V28.1088V25.1087V24.8346H25.7986H24.812H24.5406V25.1087V26.8264H16.1599V23.3837H25.7961H26.0675V23.1095V17.2988V17.1289L25.917 17.0533L20.4687 14.3147L20.3478 14.2539L20.2269 14.3147L14.7811 17.0533ZM24.5358 18.0886L24.5381 21.8346H16.1599V18.0884L20.3478 15.9841L24.5358 18.0886Z" fill="#271785" stroke="#271785"/>
<path d="M48.0167 10.4578V13.6224H53.0687V16.5642H48.0167V19.9963H53.7306V23.0496H44.2444V7.40451H53.7306V10.4578H48.0167ZM59.9521 20.1078H64.8938V23.0496H56.1797V7.40451H59.9521V20.1078ZM76.069 15.0265C76.9662 15.2196 77.6869 15.6728 78.231 16.386C78.7753 17.0842 79.0473 17.8865 79.0473 18.7928C79.0473 20.1004 78.5914 21.1405 77.6795 21.913C76.7824 22.6707 75.5249 23.0496 73.9071 23.0496H66.6931V7.40451H73.6644C75.2381 7.40451 76.4662 7.76853 77.3487 8.49654C78.2458 9.22458 78.6944 10.2126 78.6944 11.4606C78.6944 12.3818 78.4516 13.147 77.9663 13.7561C77.4957 14.3653 76.8633 14.7888 76.069 15.0265ZM70.4656 13.7339H72.9364C73.5541 13.7339 74.0248 13.6001 74.3482 13.3327C74.6866 13.0504 74.8557 12.6418 74.8557 12.107C74.8557 11.5721 74.6866 11.1635 74.3482 10.8812C74.0248 10.5989 73.5541 10.4578 72.9364 10.4578H70.4656V13.7339ZM73.2453 19.9741C73.8777 19.9741 74.363 19.8329 74.7013 19.5506C75.0542 19.2535 75.2307 18.83 75.2307 18.2803C75.2307 17.7305 75.0469 17.2997 74.6792 16.9877C74.3263 16.6756 73.8336 16.5196 73.2012 16.5196H70.4656V19.9741H73.2453ZM85.0077 7.40451V23.0496H81.2354V7.40451H85.0077ZM93.345 23.2056C92.2126 23.2056 91.1978 23.0199 90.3007 22.6484C89.4035 22.2771 88.6829 21.7273 88.1386 20.9993C87.6092 20.2713 87.3298 19.3946 87.3004 18.3694H91.3154C91.3743 18.949 91.5728 19.3946 91.9111 19.7067C92.2494 20.0037 92.6906 20.1523 93.2348 20.1523C93.7936 20.1523 94.2349 20.0261 94.5585 19.7734C94.8821 19.506 95.0438 19.1421 95.0438 18.6814C95.0438 18.2951 94.9114 17.9757 94.6467 17.7231C94.3967 17.4705 94.0804 17.2626 93.6981 17.0992C93.3304 16.9356 92.8009 16.7499 92.1096 16.542C91.1096 16.23 90.2933 15.9179 89.6609 15.6059C89.0285 15.2939 88.4844 14.8334 88.0283 14.2242C87.5724 13.615 87.3445 12.8201 87.3445 11.8395C87.3445 10.3835 87.8666 9.24686 88.9108 8.42968C89.9551 7.59765 91.3154 7.18164 92.9921 7.18164C94.6982 7.18164 96.0733 7.59765 97.1175 8.42968C98.1617 9.24686 98.7206 10.3909 98.7942 11.8618H94.7129C94.6834 11.3566 94.4996 10.9629 94.1613 10.6806C93.823 10.3835 93.3893 10.2349 92.8598 10.2349C92.4038 10.2349 92.0362 10.3612 91.7567 10.6138C91.4773 10.8515 91.3376 11.2006 91.3376 11.6612C91.3376 12.1664 91.5728 12.5601 92.0435 12.8424C92.5141 13.1247 93.2495 13.4293 94.2496 13.7561C95.2496 14.0979 96.0586 14.4247 96.6762 14.7367C97.3087 15.0487 97.8529 15.5019 98.3088 16.0962C98.7647 16.6906 98.9927 17.4557 98.9927 18.3918C98.9927 19.2831 98.7647 20.093 98.3088 20.8209C97.8676 21.5489 97.2205 22.1285 96.3674 22.5593C95.5144 22.9901 94.507 23.2056 93.345 23.2056Z" fill="#271785"/>
<path d="M51.204 27.6513V36.3454H50.0804V32.4037H45.6971V36.3454H44.5735V27.6513H45.6971V31.4682H50.0804V27.6513H51.204ZM57.0244 36.4327C56.2259 36.4327 55.4974 36.2456 54.8389 35.8714C54.1804 35.4888 53.6576 34.9608 53.2708 34.2873C52.8921 33.6053 52.7028 32.8403 52.7028 31.9921C52.7028 31.1439 52.8921 30.383 53.2708 29.7095C53.6576 29.0275 54.1804 28.4995 54.8389 28.1253C55.4974 27.7428 56.2259 27.5515 57.0244 27.5515C57.831 27.5515 58.5637 27.7428 59.2222 28.1253C59.8807 28.4995 60.3993 29.0234 60.778 29.697C61.1567 30.3706 61.3459 31.1356 61.3459 31.9921C61.3459 32.8487 61.1567 33.6137 60.778 34.2873C60.3993 34.9608 59.8807 35.4888 59.2222 35.8714C58.5637 36.2456 57.831 36.4327 57.0244 36.4327ZM57.0244 35.4473C57.6253 35.4473 58.1644 35.306 58.6419 35.0232C59.1275 34.7404 59.5062 34.3371 59.7778 33.8133C60.0577 33.2894 60.1976 32.6823 60.1976 31.9921C60.1976 31.2936 60.0577 30.6865 59.7778 30.171C59.5062 29.6471 59.1317 29.2438 58.6542 28.961C58.1767 28.6783 57.6335 28.5369 57.0244 28.5369C56.4153 28.5369 55.872 28.6783 55.3945 28.961C54.917 29.2438 54.5385 29.6471 54.2586 30.171C53.9869 30.6865 53.8511 31.2936 53.8511 31.9921C53.8511 32.6823 53.9869 33.2894 54.2586 33.8133C54.5385 34.3371 54.917 34.7404 55.3945 35.0232C55.8801 35.306 56.4234 35.4473 57.0244 35.4473ZM71.5588 27.7137V36.3454H70.4352V29.909L67.5953 36.3454H66.8051L63.9529 29.8966V36.3454H62.8293V27.7137H64.0393L67.2002 34.8486L70.3611 27.7137H71.5588ZM74.588 28.5744V31.4807H77.7242V32.4162H74.588V35.4099H78.0947V36.3454H73.4644V27.6389H78.0947V28.5744H74.588ZM82.5236 36.4327C81.9556 36.4327 81.4453 36.3329 80.9925 36.1333C80.548 35.9254 80.1982 35.6428 79.943 35.2851C79.6877 34.9193 79.5561 34.4993 79.5478 34.0253H80.7455C80.7866 34.4328 80.9514 34.7778 81.2394 35.0606C81.5358 35.335 81.9639 35.4722 82.5236 35.4722C83.0586 35.4722 83.4784 35.3391 83.783 35.0731C84.0957 34.7987 84.2522 34.4494 84.2522 34.0253C84.2522 33.6926 84.1617 33.4225 83.9805 33.2145C83.7994 33.0066 83.5731 32.8487 83.3014 32.7405C83.0298 32.6324 82.6635 32.516 82.2025 32.3913C81.6345 32.2416 81.1777 32.0919 80.832 31.9422C80.4945 31.7925 80.2023 31.5597 79.9553 31.2437C79.7166 30.9194 79.5972 30.4869 79.5972 29.9465C79.5972 29.4725 79.7166 29.0525 79.9553 28.6866C80.194 28.3208 80.5274 28.038 80.9554 27.8384C81.3917 27.6389 81.8898 27.5391 82.4495 27.5391C83.2561 27.5391 83.9147 27.7428 84.4251 28.1503C84.9436 28.5578 85.2359 29.0983 85.3017 29.7718H84.067C84.0259 29.4392 83.853 29.1482 83.5484 28.8987C83.2438 28.6408 82.8405 28.512 82.3383 28.512C81.8691 28.512 81.4864 28.6367 81.19 28.8862C80.8937 29.1273 80.7455 29.4684 80.7455 29.909C80.7455 30.225 80.832 30.4828 81.0048 30.6824C81.186 30.882 81.404 31.0358 81.6592 31.1439C81.9226 31.2437 82.289 31.3601 82.7582 31.4932C83.3261 31.6512 83.783 31.8091 84.1287 31.9672C84.4744 32.1169 84.7708 32.3539 85.0177 32.6782C85.2647 32.9941 85.3881 33.4266 85.3881 33.9754C85.3881 34.3995 85.277 34.7987 85.0548 35.1729C84.8325 35.5471 84.5032 35.8506 84.067 36.0834C83.6307 36.3163 83.1162 36.4327 82.5236 36.4327Z" fill="#333333"/>
<path d="M99.525 32.0965C99.525 28.9927 97.0343 26.4766 93.9619 26.4766C90.8895 26.4766 88.3988 28.9927 88.3988 32.0965C88.3988 35.2003 90.8895 37.7165 93.9619 37.7165C97.0343 37.7165 99.525 35.2003 99.525 32.0965Z" fill="#333333"/>
<path d="M92.3391 30.9332C92.6973 30.9332 92.9867 31.0484 93.2074 31.2786C93.4282 31.5052 93.5385 31.8232 93.5385 32.2327V34.0146H92.7787V32.3368C92.7787 32.0956 92.719 31.911 92.5996 31.7831C92.4802 31.6515 92.3173 31.5857 92.1111 31.5857C91.9012 31.5857 91.7349 31.6515 91.6118 31.7831C91.4924 31.911 91.4327 32.0956 91.4327 32.3368V34.0146H90.6729V30.9771H91.4327V31.3554C91.534 31.2238 91.6624 31.1214 91.818 31.0484C91.9772 30.9716 92.1509 30.9332 92.3391 30.9332ZM95.4388 30.9277C95.6632 30.9277 95.8604 30.9734 96.0304 31.0648C96.2005 31.1525 96.3343 31.2677 96.432 31.4102V30.9771H97.1973V34.0365C97.1973 34.3179 97.1412 34.5684 97.029 34.7877C96.9169 35.0107 96.7487 35.1861 96.5243 35.314C96.3 35.4456 96.0286 35.5114 95.7102 35.5114C95.2833 35.5114 94.9323 35.4109 94.6572 35.2099C94.3859 35.0088 94.2321 34.7346 94.1959 34.3874H94.9503C94.9902 34.5263 95.0751 34.6359 95.2054 34.7164C95.3393 34.8004 95.5004 34.8425 95.6884 34.8425C95.9092 34.8425 96.0883 34.7749 96.2258 34.6396C96.3633 34.5081 96.432 34.307 96.432 34.0365V33.565C96.3343 33.7076 96.1986 33.8264 96.0249 33.9214C95.8549 34.0164 95.6595 34.0639 95.4388 34.0639C95.1856 34.0639 94.954 33.9981 94.7441 33.8666C94.5343 33.735 94.3678 33.5503 94.2448 33.3128C94.1254 33.0715 94.0657 32.7956 94.0657 32.4849C94.0657 32.1778 94.1254 31.9055 94.2448 31.6679C94.3678 31.4304 94.5324 31.2475 94.7386 31.1196C94.9486 30.9917 95.1819 30.9277 95.4388 30.9277ZM96.432 32.4958C96.432 32.3094 96.3959 32.1504 96.3235 32.0188C96.2511 31.8835 96.1534 31.7813 96.0304 31.7118C95.9074 31.6387 95.7753 31.6021 95.6342 31.6021C95.4931 31.6021 95.3628 31.6368 95.2434 31.7063C95.124 31.7758 95.0263 31.8781 94.9503 32.0133C94.878 32.1449 94.8418 32.3022 94.8418 32.4849C94.8418 32.6676 94.878 32.8285 94.9503 32.9674C95.0263 33.1027 95.124 33.2068 95.2434 33.2799C95.3665 33.3529 95.4967 33.3895 95.6342 33.3895C95.7753 33.3895 95.9074 33.3549 96.0304 33.2854C96.1534 33.2123 96.2511 33.1099 96.3235 32.9783C96.3959 32.843 96.432 32.6823 96.432 32.4958Z" fill="white"/>
</g>
<defs>
<linearGradient id="paint0_linear_612_1368" x1="0" y1="21.3362" x2="40.7056" y2="21.3362" gradientUnits="userSpaceOnUse">
<stop stop-color="#271785"/>
<stop offset="1" stop-color="#0CD851"/>
</linearGradient>
<clipPath id="clip0_612_1368">
<rect width="100" height="41.1216" fill="white" transform="translate(0 0.775391)"/>
</clipPath>
</defs>
</svg>
