<svg width="24" height="25" viewBox="0 0 24 25" fill="none" xmlns="http://www.w3.org/2000/svg">
<path d="M12 2.30078C6.49 2.30078 2 6.79078 2 12.3008C2 17.8108 6.49 22.3008 12 22.3008C17.51 22.3008 22 17.8108 22 12.3008C22 6.79078 17.51 2.30078 12 2.30078ZM16.78 10.0008L11.11 15.6708C10.97 15.8108 10.78 15.8908 10.58 15.8908C10.38 15.8908 10.19 15.8108 10.05 15.6708L7.22 12.8408C6.93 12.5508 6.93 12.0708 7.22 11.7808C7.51 11.4908 7.99 11.4908 8.28 11.7808L10.58 14.0808L15.72 8.94078C16.01 8.65078 16.49 8.65078 16.78 8.94078C17.07 9.23078 17.07 9.70078 16.78 10.0008Z" fill="#10D80C"/>
</svg>
